# xmcd
# 
# Track frame offsets:
#     150
#     26906
#     43364
#     67769
#     84010
#     92373
#     115642
#     134727
#     145864
#     171090
# 
# Disc length: 2516
# 
# Revision: 1
# Processed by: cddbd v1.5.2PL0 Copyright (c) Steve Scherf et al.
# Submitted via: BonkEnc v1.0.8
# 
DISCID=7e09d20a
DTITLE=Esa Helasvuo - Q
DYEAR=1976
DGENRE=Contemporary Jazz
TTITLE0=Pertin hiihtoreissu
TTITLE1=Ornitologit
TTITLE2=Num (linnun nimi)
TTITLE3=Petting
TTITLE4=1'47"
TTITLE5=Boa noiti meu amor
TTITLE6=Rag Espoo
TTITLE7=Nolla
TTITLE8=Sun and mun
TTITLE9=Auringon laskun aikaan
EXTD=YEAR: 1977
EXTT0=
EXTT1=
EXTT2=
EXTT3=
EXTT4=
EXTT5=
EXTT6=
EXTT7=
EXTT8=
EXTT9=
PLAYORDER=
